/* XPM */
static char * fingerprint_gui_xpm[] = {
"32 32 431 2",
"  	c None",
". 	c #EEEEEE",
"+ 	c #E8E8E8",
"@ 	c #E7E7E7",
"# 	c #E7E7E8",
"$ 	c #E6E6E6",
"% 	c #EBEBEB",
"& 	c #EDEDED",
"* 	c #8B8B8C",
"= 	c #6E6E6F",
"- 	c #69696A",
"; 	c #6A6A6A",
"> 	c #727273",
", 	c #777778",
"' 	c #7C7C7C",
") 	c #818182",
"! 	c #868686",
"~ 	c #8A898A",
"{ 	c #8E8E8F",
"] 	c #929292",
"^ 	c #969697",
"/ 	c #99999A",
"( 	c #9C9C9D",
"_ 	c #A0A09F",
": 	c #A3A3A3",
"< 	c #A6A6A6",
"[ 	c #AAAAAB",
"} 	c #AEAEAE",
"| 	c #B1B1B2",
"1 	c #9D9D9E",
"2 	c #DBDBDC",
"3 	c #FFFFFF",
"4 	c #E3E3E3",
"5 	c #5C5C5D",
"6 	c #616162",
"7 	c #636364",
"8 	c #656566",
"9 	c #6B6B6B",
"0 	c #707071",
"a 	c #7E7E7F",
"b 	c #858586",
"c 	c #919091",
"d 	c #9B9B9C",
"e 	c #A0A0A0",
"f 	c #A5A5A5",
"g 	c #A9A9A9",
"h 	c #ADADAD",
"i 	c #B5B5B5",
"j 	c #B9B9BA",
"k 	c #BDBDBE",
"l 	c #C2C2C2",
"m 	c #C7C7C8",
"n 	c #CFCFCF",
"o 	c #D4D4D5",
"p 	c #7B7B7C",
"q 	c #606061",
"r 	c #686869",
"s 	c #6F6F6F",
"t 	c #7D7D7E",
"u 	c #858585",
"v 	c #919192",
"w 	c #9B9C9D",
"x 	c #A1A1A2",
"y 	c #A5A5A6",
"z 	c #AEAEAF",
"A 	c #B2B2B3",
"B 	c #B5B6B7",
"C 	c #BABABA",
"D 	c #BDBEBE",
"E 	c #C2C1C1",
"F 	c #C5C5C6",
"G 	c #CACACA",
"H 	c #D4D4D4",
"I 	c #D9D9D9",
"J 	c #828282",
"K 	c #D0D0D0",
"L 	c #626263",
"M 	c #6D6D6E",
"N 	c #757577",
"O 	c #848485",
"P 	c #969797",
"Q 	c #A1A2A2",
"R 	c #A6A7A7",
"S 	c #ABABAC",
"T 	c #AEAFAF",
"U 	c #B3B3B4",
"V 	c #B6B7B7",
"W 	c #BBBBBB",
"X 	c #BEBEBF",
"Y 	c #C5C6C6",
"Z 	c #C9C9C9",
"` 	c #CDCDCE",
" .	c #D1D1D1",
"..	c #D6D6D6",
"+.	c #DBDBDB",
"@.	c #E1E1E1",
"#.	c #7D7D7D",
"$.	c #F9F9F9",
"%.	c #EFEFEF",
"&.	c #6B6B6C",
"*.	c #737374",
"=.	c #7C7B7C",
"-.	c #838384",
";.	c #8A8A8B",
">.	c #909192",
",.	c #969798",
"'.	c #9C9D9D",
").	c #A2A2A3",
"!.	c #A6A6A7",
"~.	c #A8A8A9",
"{.	c #ACABAD",
"].	c #B0B0B1",
"^.	c #B5B5B6",
"/.	c #BBBABB",
"(.	c #BFBFBF",
"_.	c #C2C2C3",
":.	c #C9C9CA",
"<.	c #CDCDCD",
"[.	c #D5D5D5",
"}.	c #D8D8D9",
"|.	c #DCDCDC",
"1.	c #DEDEDE",
"2.	c #666667",
"3.	c #636363",
"4.	c #717172",
"5.	c #79797A",
"6.	c #89898A",
"7.	c #8F9091",
"8.	c #A8A9A9",
"9.	c #C3C4C4",
"0.	c #E6E5E6",
"a.	c #F7F6F6",
"b.	c #F6F7F7",
"c.	c #E8E8E9",
"d.	c #CFD0D0",
"e.	c #C3C3C4",
"f.	c #C6C7C7",
"g.	c #D0D1D1",
"h.	c #D8D8D8",
"i.	c #B7B7B7",
"j.	c #656565",
"k.	c #767677",
"l.	c #7E7E80",
"m.	c #868788",
"n.	c #8D8F90",
"o.	c #959596",
"p.	c #9FA0A1",
"q.	c #C0C1C1",
"r.	c #F2F2F2",
"s.	c #E4E4E4",
"t.	c #C6C6C6",
"u.	c #C8C9C9",
"v.	c #ECECEC",
"w.	c #F6F6F6",
"x.	c #CBCCCC",
"y.	c #D3D3D4",
"z.	c #D7D7D7",
"A.	c #DDDDDE",
"B.	c #DCDCDD",
"C.	c #DDDDDD",
"D.	c #646465",
"E.	c #8C8C8D",
"F.	c #929394",
"G.	c #9A9B9C",
"H.	c #A0A1A2",
"I.	c #BAB9B9",
"J.	c #B4B4B5",
"K.	c #D8D9D9",
"L.	c #F8F8F8",
"M.	c #FDFDFD",
"N.	c #ECECED",
"O.	c #CDCCCC",
"P.	c #D2D1D2",
"Q.	c #DFDFE0",
"R.	c #D6D7D7",
"S.	c #DADADA",
"T.	c #DEDFDF",
"U.	c #E1E1E2",
"V.	c #535354",
"W.	c #777879",
"X.	c #808081",
"Y.	c #88898A",
"Z.	c #919092",
"`.	c #989899",
" +	c #9F9FA0",
".+	c #ABACAD",
"++	c #BBBCBD",
"@+	c #CACBCB",
"#+	c #DDDEDE",
"$+	c #FCFCFC",
"%+	c #D9D9DA",
"&+	c #E0E0E0",
"*+	c #DFDFDF",
"=+	c #E0E0E1",
"-+	c #888889",
";+	c #474748",
">+	c #7C7C7D",
",+	c #848586",
"'+	c #8D8E8F",
")+	c #9C9D9E",
"!+	c #DFE0E0",
"~+	c #B2B3B4",
"{+	c #F6F6F7",
"]+	c #CCCCCC",
"^+	c #CCCCCD",
"/+	c #FBFBFB",
"(+	c #DADADB",
"_+	c #E0E1E1",
":+	c #59595A",
"<+	c #4D4D4E",
"[+	c #7F7F80",
"}+	c #AFB0B0",
"|+	c #B1B1B1",
"1+	c #E9E9E9",
"2+	c #FDFDFC",
"3+	c #CDCECE",
"4+	c #E7E8E8",
"5+	c #E5E5E5",
"6+	c #F3F4F4",
"7+	c #E2E2E2",
"8+	c #BDBDBD",
"9+	c #5E5E60",
"0+	c #595A5B",
"a+	c #4E4F50",
"b+	c #717171",
"c+	c #7A7A7B",
"d+	c #838385",
"e+	c #8C8D8E",
"f+	c #949496",
"g+	c #A4A5A6",
"h+	c #CBCBCC",
"i+	c #FEFEFE",
"j+	c #BBBBBC",
"k+	c #EDEDEE",
"l+	c #EAEAEA",
"m+	c #D7D8D8",
"n+	c #E9EAEA",
"o+	c #E1E2E3",
"p+	c #E3E3E4",
"q+	c #696A6B",
"r+	c #616163",
"s+	c #5B5C5D",
"t+	c #515152",
"u+	c #747475",
"v+	c #979899",
"w+	c #A0A0A1",
"x+	c #A7A8A9",
"y+	c #B7B6B7",
"z+	c #B5B4B5",
"A+	c #D6D8D8",
"B+	c #FCFBFB",
"C+	c #F1F1F1",
"D+	c #EEEDED",
"E+	c #676869",
"F+	c #68686A",
"G+	c #626264",
"H+	c #5D5D5E",
"I+	c #515253",
"J+	c #767778",
"K+	c #808181",
"L+	c #898A8B",
"M+	c #A3A3A4",
"N+	c #AAABAC",
"O+	c #DBDBDA",
"P+	c #FEFEFF",
"Q+	c #FAFAFA",
"R+	c #D0D0D1",
"S+	c #DEDEDF",
"T+	c #D4D5D5",
"U+	c #F4F4F4",
"V+	c #EFEFF0",
"W+	c #D6D6D7",
"X+	c #747576",
"Y+	c #6F7071",
"Z+	c #636465",
"`+	c #5D5E5F",
" @	c #959495",
".@	c #B3B4B5",
"+@	c #B1B0B1",
"@@	c #C3C3C3",
"#@	c #D7D6D7",
"$@	c #DADBDB",
"%@	c #D2D3D3",
"&@	c #7A7B7D",
"*@	c #757678",
"=@	c #6F7072",
"-@	c #6A6A6B",
";@	c #5E5E5F",
">@	c #979798",
",@	c #9E9FA1",
"'@	c #A6A6A8",
")@	c #B4B5B5",
"!@	c #FCFDFD",
"~@	c #D6D5D5",
"{@	c #D1D1D2",
"]@	c #E9E9EA",
"^@	c #CFD0D1",
"/@	c #E4E3E4",
"(@	c #909293",
"_@	c #808183",
":@	c #7B7C7E",
"<@	c #707072",
"[@	c #6F6F70",
"}@	c #7D7E7E",
"|@	c #878788",
"1@	c #8F8F90",
"2@	c #B8B9BA",
"3@	c #AFAFAF",
"4@	c #BCBCBC",
"5@	c #F5F6F6",
"6@	c #B0AFAF",
"7@	c #D9DADB",
"8@	c #909292",
"9@	c #757677",
"0@	c #929293",
"a@	c #9B9C9C",
"b@	c #E3E2E2",
"c@	c #D5D4D4",
"d@	c #C7C6C6",
"e@	c #B5B4B4",
"f@	c #9B9B9B",
"g@	c #AEAFB0",
"h@	c #A4A5A7",
"i@	c #DCDDDD",
"j@	c #D0D1D2",
"k@	c #9A9A9B",
"l@	c #7A7B7C",
"m@	c #797A7C",
"n@	c #747476",
"o@	c #6E6E70",
"p@	c #68696A",
"q@	c #626364",
"r@	c #5C5D5E",
"s@	c #525253",
"t@	c #7F8081",
"u@	c #8A8A8C",
"v@	c #969799",
"w@	c #98989A",
"x@	c #A2A3A4",
"y@	c #B7B9B9",
"z@	c #B8B9B9",
"A@	c #A2A4A6",
"B@	c #A9AAAB",
"C@	c #9D9C9C",
"D@	c #BEBEC0",
"E@	c #7C7D7F",
"F@	c #717374",
"G@	c #6D6D6F",
"H@	c #616263",
"I@	c #5A5A5B",
"J@	c #58595A",
"K@	c #636365",
"L@	c #6D6E6F",
"M@	c #ACACAC",
"N@	c #D1D1D0",
"O@	c #BFBFBE",
"P@	c #B1B0B0",
"Q@	c #AFAEAF",
"R@	c #F4F3F3",
"S@	c #AFAFB0",
"T@	c #BEBEBE",
"U@	c #737475",
"V@	c #707171",
"W@	c #6A6B6C",
"X@	c #656567",
"Y@	c #5A5B5C",
"Z@	c #4F4F50",
"`@	c #585859",
" #	c #575758",
".#	c #6C6D6E",
"+#	c #717273",
"@#	c #C8C8C9",
"##	c #CECFCF",
"$#	c #C9CACB",
"%#	c #C2C1C2",
"&#	c #9E9E9E",
"*#	c #727274",
"=#	c #555556",
"-#	c #5F6061",
";#	c #646466",
">#	c #727374",
",#	c #B6B5B6",
"'#	c #AEADAD",
")#	c #A4A3A4",
"!#	c #A6A5A5",
"~#	c #C4C4C4",
"{#	c #A5A5A7",
"]#	c #F2F2F3",
"^#	c #969696",
"/#	c #909091",
"(#	c #737375",
"_#	c #6E6F70",
":#	c #6A6A6C",
"<#	c #606062",
"[#	c #5B5B5C",
"}#	c #565657",
"|#	c #4B4B4C",
"1#	c #5C5C5E",
"2#	c #9D9E9F",
"3#	c #7B797A",
"4#	c #F8F7F7",
"5#	c #888989",
"6#	c #7A7A7C",
"7#	c #666768",
"8#	c #545455",
"9#	c #5D5D5F",
"0#	c #666668",
"a#	c #6B6C6D",
"b#	c #9B9A9B",
"c#	c #A4A4A5",
"d#	c #A2A2A2",
"e#	c #B8B8BA",
"f#	c #818082",
"g#	c #676768",
"h#	c #59595B",
"i#	c #545556",
"j#	c #505051",
"k#	c #6F6F71",
"l#	c #848486",
"m#	c #5E5F60",
"n#	c #4E4E4F",
"o#	c #646566",
"p#	c #707172",
"q#	c #6E6D6F",
"r#	c #E6E6E7",
"s#	c #676769",
"t#	c #F5F5F5",
"u#	c #5A5A5C",
"v#	c #5F5F61",
"w#	c #B4B4B4",
"x#	c #757576",
"          . + @ @ @ @ @ @ @ # + + + # # @ @ @ @ @ $ %           ",
"      & * = - ; = > , ' ) ! ~ { ] ^ / ( _ : < [ } | 1 ) 2 3     ",
"    4 5 6 7 8 9 0 , a b * c ^ d e f g h | i j k l m n o p n 3   ",
"  & 5 q 7 7 r s , t u * v ^ w x y [ z A B C D E F G n H I J K   ",
"  * q 7 L 8 M N t O * v P ( Q R S T U V W X l Y Z `  ...+.@.#.$.",
"%.M 7 L 7 &.*.=.-.;.>.,.'.).!.~.{.].^./.(._.F :.<. .[.}.|.1.!.$ ",
"+ 2.7 3.r 4.5.) 6.7.^ ( ).8.9.0.a.b.c.d.e.f.G ` g.H h.+.|.+.i.1.",
"@ L 7 j.M k.l.m.n.o.w p.q.r.s.<.t.u.[.v.w.h.x. .y.z.+.A.B.C.x +.",
"@ L D.- > p O E.F.G.H.(.3 I.J.K.L.M.N.O.P.3 Q.y.R.S.A.T.C.U.V.C.",
"@ 3.2.= W.X.Y.Z.`. +.+w.j ++L.4 Z @+#+$+Q.H $.}.%+C.&+*+=+-+;+C.",
"@ 7 - > >+,+'+o.)+x <.!+~+{+]+^+$.M.4 ^+/+(+v.%.2 !+_+&+J.:+<+C.",
"@ D.M k.[+Y.v / x ].}+|++ 1+m 2+H 3+L.4+5+6+4 M.C.7+s.8+9+0+a+A.",
"@ 2.b+c+d+e+f+)+g+h+i+3 r.j+k+l+m+n+B.$+o+M.p+3 &+5+~+q+r+s+t+1.",
"@ - u+t m.7.v+w+x+y+~+z+i A+B+3+C+D+=+/+@ $+c./+|.H.E+F+G+H+I+1.",
"@ &.J+K+L+F.G.M+N+O+P+Q+Q+$+R+S+3 T+U+v.r.V+6+W+,+X+Y+q+Z+`+V.1.",
"@ M 5.-.E. @)+y z .@+@@@]+G n+/+#@# /+$@$.%@L.-+&@*@=@-@D.;@V.1.",
"@ = =.b { >@,@'@)@$.i+i+!@& ~@{@]@3 Q.^@/@(@%._@:@*@<@-@D.;@V.1.",
"@ [@}@|@1@`.H.~.2@3@|+i.4@<.p+5@C+6@7@p.%.8@m o 9@9@Y+q+Z+;@V.1.",
"@ 4.J ;.0@a@M+N+F b@+ 1.c@d@e@f@g@h@i@j@j+U+k@l@m@n@o@p@q@r@s@1.",
"@ 9+L [@5.t@m.u@>.v@w@x@z y@z@A@l $.B@/+ +C@D@E@W.F@G@E+H@5 t+1.",
"@ I@J@;@K@p@L@=@M@N@O@i P@Q@8+R@A.S@. T@$ '+U@l@9@V@W@X@q Y@Z@A.",
"@ `@ #r@G+E+.#+#+#1 j @###$#.@u+%#L.&#M.k@E@:@J+*#G@p@7 `+`@<+C.",
"@  #=#I@-#;#q+L@>#,#'#)#: !#~#M.{#/ ]#^#/#:@W.(#_#:#8 <#[#}#|#C.",
"@  #s@ #1#6 2.:#L@_#| }.5+_+2#3#4#++o.5#6#J+(#_#W@7#H@H+`@V.|#C.",
"@  #t+8#J@9#H@0#:#a#b#c#/ d#U+e#f#C.Y.J+9@*#_#W@g#q@;@h#i#t+|#C.",
"+ I@j#t+=#:+;@H@0#q+.#k#+#>#M C+l#_#*#F@V@G@:#7#q@m#I@}#s@j#n#&+",
"& j.t+j#t+=#:+`+6 o#r W@.#o@p#6 q#Y+_#G@W@p@8 H@;@I@}#s@j#t+ #r#",
"  [+j#t+j#t+=#:+r@q q@8 s#F+q+-@-@q+p@E+X@7 <#H+h#}#s@j#t+t+s t#",
"  S+j#j#t+j#t+8# #u#H+v#r+G+Z+D.D.Z+q@H@q `+[#`@i#s@j#t+j#|#l   ",
"  3 n Z@t+t+j#t+s@=#`@I@s+H+`+;@;@;@r@5 Y@`@}#V.t+j#t+t+|#w#3   ",
"    3 H x#I@Z@|#|#|#<+a+t+I+V.V.V.V.s@t+Z@<+|#|#|#n# #s l 3     ",
"        Q++ @.C.C.C.C.A.1.1.1.1.1.1.1.1.A.C.C.C.C.&+r#t#        "};
